<mxfile host="app.diagrams.net" modified="2023-09-23T01:12:24.218Z" agent="Mozilla/5.0 (Windows NT 10.0; Win64; x64) AppleWebKit/537.36 (KHTML, like Gecko) Chrome/117.0.0.0 Safari/537.36" version="21.8.1" etag="r0_lBmhlzWVRJ3rI6Ptv" type="github">
  <diagram name="PÃ¡gina-1" id="hbdIWy698ve13vFYl77u">
    <mxGraphModel>
      <root>
        <mxCell id="0" />
        <mxCell id="1" parent="0" />
      </root>
    </mxGraphModel>
  </diagram>
</mxfile>
